ffmpeg version 8.0.1-essentials_build-www.gyan.dev Copyright (c) 2000-2025 the FFmpeg developers
  built with gcc 15.2.0 (Rev8, Built by MSYS2 project)
  configuration: --enable-gpl --enable-version3 --enable-static --disable-w32threads --disable-autodetect --enable-fontconfig --enable-iconv --enable-gnutls --enable-libxml2 --enable-gmp --enable-bzlib --enable-lzma --enable-zlib --enable-libsrt --enable-libssh --enable-libzmq --enable-avisynth --enable-sdl2 --enable-libwebp --enable-libx264 --enable-libx265 --enable-libxvid --enable-libaom --enable-libopenjpeg --enable-libvpx --enable-mediafoundation --enable-libass --enable-libfreetype --enable-libfribidi --enable-libharfbuzz --enable-libvidstab --enable-libvmaf --enable-libzimg --enable-amf --enable-cuda-llvm --enable-cuvid --enable-dxva2 --enable-d3d11va --enable-d3d12va --enable-ffnvcodec --enable-libvpl --enable-nvdec --enable-nvenc --enable-vaapi --enable-openal --enable-libgme --enable-libopenmpt --enable-libopencore-amrwb --enable-libmp3lame --enable-libtheora --enable-libvo-amrwbenc --enable-libgsm --enable-libopencore-amrnb --enable-libopus --enable-libspeex --enable-libvorbis --enable-librubberband
  libavutil      60.  8.100 / 60.  8.100
  libavcodec     62. 11.100 / 62. 11.100
  libavformat    62.  3.100 / 62.  3.100
  libavdevice    62.  1.100 / 62.  1.100
  libavfilter    11.  4.100 / 11.  4.100
  libswscale      9.  1.100 /  9.  1.100
  libswresample   6.  1.100 /  6.  1.100
Input #0, rawvideo, from 'fd:':
  Duration: N/A, start: 0.000000, bitrate: 2985984 kb/s
  Stream #0:0: Video: rawvideo (RGB[24] / 0x18424752), rgb24, 1920x1080, 2985984 kb/s, 60 tbr, 60 tbn
Stream mapping:
  Stream #0:0 -> #0:0 (rawvideo (native) -> h264 (libx264))
[libx264 @ 000001646742e300] using cpu capabilities: MMX2 SSE2Fast SSSE3 SSE4.2 AVX FMA3 BMI2 AVX2
[libx264 @ 000001646742e300] profile High, level 4.2, 4:2:0, 8-bit
[libx264 @ 000001646742e300] 264 - core 165 r3223 0480cb0 - H.264/MPEG-4 AVC codec - Copyleft 2003-2025 - http://www.videolan.org/x264.html - options: cabac=1 ref=2 deblock=1:0:0 analyse=0x3:0x113 me=hex subme=6 psy=1 psy_rd=1.00:0.00 mixed_ref=1 me_range=16 chroma_me=1 trellis=1 8x8dct=1 cqm=0 deadzone=21,11 fast_pskip=1 chroma_qp_offset=-2 threads=18 lookahead_threads=3 sliced_threads=0 nr=0 decimate=1 interlaced=0 bluray_compat=0 constrained_intra=0 bframes=3 b_pyramid=2 b_adapt=1 b_bias=0 direct=1 weightb=1 open_gop=0 weightp=1 keyint=250 keyint_min=25 scenecut=40 intra_refresh=0 rc_lookahead=30 rc=crf mbtree=1 crf=18.0 qcomp=0.60 qpmin=0 qpmax=69 qpstep=4 ip_ratio=1.40 aq=1:1.00
Output #0, mp4, to 'C:\Projekte\YouTube\VSCode\RisingSeaLevel\sea_level_rise_argentina.mp4':
  Metadata:
    encoder         : Lavf62.3.100
  Stream #0:0: Video: h264 (avc1 / 0x31637661), yuv420p(tv, progressive), 1920x1080, q=2-31, 60 fps, 15360 tbn
    Metadata:
      encoder         : Lavc62.11.100 libx264
    Side data:
      cpb: bitrate max/min/avg: 0/0/0 buffer size: 0 vbv_delay: N/A
frame=    0 fps=0.0 q=0.0 size=       0KiB time=N/A bitrate=N/A speed=N/A elapsed=0:00:00.51    frame=    0 fps=0.0 q=0.0 size=       0KiB time=N/A bitrate=N/A speed=N/A elapsed=0:00:01.02    frame=    0 fps=0.0 q=0.0 size=       0KiB time=N/A bitrate=N/A speed=N/A elapsed=0:00:01.55    frame=    0 fps=0.0 q=0.0 size=       0KiB time=N/A bitrate=N/A speed=N/A elapsed=0:00:02.06    frame=   13 fps=5.0 q=26.0 size=       0KiB time=00:00:00.18 bitrate=   2.1kbits/s speed=0.0711x elapsed=0:00:02.57    frame=   27 fps=8.7 q=26.0 size=       0KiB time=00:00:00.41 bitrate=   0.9kbits/s speed=0.135x elapsed=0:00:03.09    frame=   41 fps= 11 q=26.0 size=     256KiB time=00:00:00.65 bitrate=3227.0kbits/s speed=0.18x elapsed=0:00:03.60    frame=   55 fps= 13 q=26.0 size=     256KiB time=00:00:00.88 bitrate=2374.6kbits/s speed=0.214x elapsed=0:00:04.13    frame=   70 fps= 15 q=26.0 size=     256KiB time=00:00:01.13 bitrate=1850.8kbits/s speed=0.244x elapsed=0:00:04.64    frame=   99 fps= 19 q=26.0 size=     512KiB time=00:00:01.61 bitrate=2594.7kbits/s speed=0.314x elapsed=0:00:05.15    frame=  130 fps= 23 q=26.0 size=     512KiB time=00:00:02.13 bitrate=1966.3kbits/s speed=0.376x elapsed=0:00:05.68    frame=  148 fps= 24 q=26.0 size=     512KiB time=00:00:02.43 bitrate=1723.8kbits/s speed=0.392x elapsed=0:00:06.20    frame=  164 fps= 24 q=26.0 size=     512KiB time=00:00:02.70 bitrate=1553.6kbits/s speed=0.402x elapsed=0:00:06.71    frame=  181 fps= 25 q=26.0 size=     512KiB time=00:00:02.98 bitrate=1406.0kbits/s speed=0.413x elapsed=0:00:07.22    frame=  199 fps= 26 q=26.0 size=     512KiB time=00:00:03.28 bitrate=1277.6kbits/s speed=0.423x elapsed=0:00:07.75    frame=  217 fps= 26 q=26.0 size=     512KiB time=00:00:03.58 bitrate=1170.6kbits/s speed=0.433x elapsed=0:00:08.26    frame=  234 fps= 27 q=24.0 size=     512KiB time=00:00:03.86 bitrate=1084.8kbits/s speed=0.44x elapsed=0:00:08.77    frame=  252 fps= 27 q=26.0 size=     768KiB time=00:00:04.16 bitrate=1510.0kbits/s speed=0.448x elapsed=0:00:09.30    frame=  269 fps= 27 q=26.0 size=     768KiB time=00:00:04.45 bitrate=1413.9kbits/s speed=0.453x elapsed=0:00:09.81    frame=  285 fps= 28 q=26.0 size=     768KiB time=00:00:04.71 bitrate=1334.0kbits/s speed=0.457x elapsed=0:00:10.32    frame=  303 fps= 28 q=26.0 size=     768KiB time=00:00:05.01 bitrate=1254.2kbits/s speed=0.463x elapsed=0:00:10.83    frame=  321 fps= 28 q=26.0 size=     768KiB time=00:00:05.31 bitrate=1183.4kbits/s speed=0.468x elapsed=0:00:11.36    frame=  339 fps= 29 q=26.0 size=     768KiB time=00:00:05.61 bitrate=1120.2kbits/s speed=0.473x elapsed=0:00:11.87    frame=  356 fps= 29 q=26.0 size=     768KiB time=00:00:05.90 bitrate=1066.4kbits/s speed=0.476x elapsed=0:00:12.39    frame=  373 fps= 29 q=26.0 size=     768KiB time=00:00:06.18 bitrate=1017.5kbits/s speed=0.479x elapsed=0:00:12.90    frame=  391 fps= 29 q=26.0 size=     768KiB time=00:00:06.48 bitrate= 970.5kbits/s speed=0.483x elapsed=0:00:13.41    frame=  409 fps= 29 q=26.0 size=     768KiB time=00:00:06.78 bitrate= 927.5kbits/s speed=0.486x elapsed=0:00:13.94    frame=  426 fps= 29 q=26.0 size=     768KiB time=00:00:07.06 bitrate= 890.4kbits/s speed=0.489x elapsed=0:00:14.45    frame=  443 fps= 30 q=26.0 size=    1024KiB time=00:00:07.35 bitrate=1141.4kbits/s speed=0.491x elapsed=0:00:14.96    frame=  460 fps= 30 q=26.0 size=    1024KiB time=00:00:07.63 bitrate=1099.0kbits/s speed=0.493x elapsed=0:00:15.48    frame=  478 fps= 30 q=26.0 size=    1024KiB time=00:00:07.93 bitrate=1057.4kbits/s speed=0.496x elapsed=0:00:16.00    frame=  495 fps= 30 q=26.0 size=    1024KiB time=00:00:08.21 bitrate=1021.0kbits/s speed=0.497x elapsed=0:00:16.51    frame=  512 fps= 30 q=26.0 size=    1024KiB time=00:00:08.50 bitrate= 986.9kbits/s speed=0.499x elapsed=0:00:17.03    frame=  529 fps= 30 q=26.0 size=    1024KiB time=00:00:08.78 bitrate= 955.1kbits/s speed=0.501x elapsed=0:00:17.54    frame=  546 fps= 30 q=26.0 size=    1024KiB time=00:00:09.06 bitrate= 925.3kbits/s speed=0.502x elapsed=0:00:18.07    frame=  563 fps= 30 q=26.0 size=    1280KiB time=00:00:09.35 bitrate=1121.5kbits/s speed=0.503x elapsed=0:00:18.58    frame=  580 fps= 30 q=26.0 size=    1280KiB time=00:00:09.63 bitrate=1088.5kbits/s speed=0.505x elapsed=0:00:19.09    frame=  597 fps= 30 q=26.0 size=    1280KiB time=00:00:09.91 bitrate=1057.4kbits/s speed=0.506x elapsed=0:00:19.60    frame=  614 fps= 31 q=26.0 size=    1280KiB time=00:00:10.20 bitrate=1028.1kbits/s speed=0.507x elapsed=0:00:20.11    frame=  632 fps= 31 q=26.0 size=    1280KiB time=00:00:10.50 bitrate= 998.7kbits/s speed=0.509x elapsed=0:00:20.64    frame=  649 fps= 31 q=26.0 size=    1280KiB time=00:00:10.78 bitrate= 972.4kbits/s speed=0.51x elapsed=0:00:21.15    frame=  666 fps= 31 q=26.0 size=    1280KiB time=00:00:11.06 bitrate= 947.5kbits/s speed=0.511x elapsed=0:00:21.67    frame=  683 fps= 31 q=26.0 size=    1280KiB time=00:00:11.35 bitrate= 923.9kbits/s speed=0.512x elapsed=0:00:22.18    frame=  700 fps= 31 q=26.0 size=    1280KiB time=00:00:11.63 bitrate= 901.4kbits/s speed=0.513x elapsed=0:00:22.69    frame=  718 fps= 31 q=26.0 size=    1280KiB time=00:00:11.93 bitrate= 878.7kbits/s speed=0.514x elapsed=0:00:23.22    frame=  735 fps= 31 q=26.0 size=    1280KiB time=00:00:12.21 bitrate= 858.3kbits/s speed=0.515x elapsed=0:00:23.73    frame=  752 fps= 31 q=26.0 size=    1536KiB time=00:00:12.50 bitrate=1006.7kbits/s speed=0.515x elapsed=0:00:24.24    frame=  769 fps= 31 q=26.0 size=    1536KiB time=00:00:12.78 bitrate= 984.4kbits/s speed=0.516x elapsed=0:00:24.76    frame=  786 fps= 31 q=26.0 size=    1536KiB time=00:00:13.06 bitrate= 963.0kbits/s speed=0.517x elapsed=0:00:25.28    frame=  802 fps= 31 q=26.0 size=    1536KiB time=00:00:13.33 bitrate= 943.7kbits/s speed=0.517x elapsed=0:00:25.80    frame=  818 fps= 31 q=26.0 size=    1536KiB time=00:00:13.60 bitrate= 925.2kbits/s speed=0.517x elapsed=0:00:26.31    frame=  835 fps= 31 q=26.0 size=    1536KiB time=00:00:13.88 bitrate= 906.4kbits/s speed=0.517x elapsed=0:00:26.82    frame=  852 fps= 31 q=26.0 size=    1536KiB time=00:00:14.16 bitrate= 888.2kbits/s speed=0.518x elapsed=0:00:27.33    frame=  869 fps= 31 q=26.0 size=    1536KiB time=00:00:14.45 bitrate= 870.8kbits/s speed=0.519x elapsed=0:00:27.86    frame=  886 fps= 31 q=26.0 size=    1792KiB time=00:00:14.73 bitrate= 996.4kbits/s speed=0.519x elapsed=0:00:28.37    frame=  902 fps= 31 q=26.0 size=    1792KiB time=00:00:15.00 bitrate= 978.7kbits/s speed=0.519x elapsed=0:00:28.89    frame=  918 fps= 31 q=26.0 size=    1792KiB time=00:00:15.26 bitrate= 961.6kbits/s speed=0.519x elapsed=0:00:29.40    frame=  933 fps= 31 q=26.0 size=    1792KiB time=00:00:15.51 bitrate= 946.1kbits/s speed=0.518x elapsed=0:00:29.92    frame=  951 fps= 31 q=26.0 size=    1792KiB time=00:00:15.81 bitrate= 928.2kbits/s speed=0.52x elapsed=0:00:30.44    frame=  971 fps= 31 q=26.0 size=    1792KiB time=00:00:16.15 bitrate= 909.0kbits/s speed=0.522x elapsed=0:00:30.95    frame=  990 fps= 31 q=26.0 size=    1792KiB time=00:00:16.46 bitrate= 891.5kbits/s speed=0.523x elapsed=0:00:31.46    frame= 1008 fps= 32 q=26.0 size=    2048KiB time=00:00:16.76 bitrate=1000.7kbits/s speed=0.524x elapsed=0:00:31.98    frame= 1027 fps= 32 q=26.0 size=    2048KiB time=00:00:17.08 bitrate= 982.1kbits/s speed=0.526x elapsed=0:00:32.49    frame= 1046 fps= 32 q=26.0 size=    2048KiB time=00:00:17.40 bitrate= 964.2kbits/s speed=0.527x elapsed=0:00:33.02    frame= 1064 fps= 32 q=26.0 size=    2048KiB time=00:00:17.70 bitrate= 947.9kbits/s speed=0.528x elapsed=0:00:33.54    frame= 1083 fps= 32 q=26.0 size=    2048KiB time=00:00:18.01 bitrate= 931.2kbits/s speed=0.529x elapsed=0:00:34.06    frame= 1102 fps= 32 q=26.0 size=    2048KiB time=00:00:18.33 bitrate= 915.1kbits/s speed=0.53x elapsed=0:00:34.57    frame= 1121 fps= 32 q=26.0 size=    2048KiB time=00:00:18.65 bitrate= 899.6kbits/s speed=0.532x elapsed=0:00:35.08    frame= 1141 fps= 32 q=26.0 size=    2304KiB time=00:00:18.98 bitrate= 994.3kbits/s speed=0.533x elapsed=0:00:35.61    frame= 1160 fps= 32 q=26.0 size=    2304KiB time=00:00:19.30 bitrate= 978.0kbits/s speed=0.534x elapsed=0:00:36.12    frame= 1178 fps= 32 q=26.0 size=    2304KiB time=00:00:19.60 bitrate= 963.0kbits/s speed=0.535x elapsed=0:00:36.64    frame= 1196 fps= 32 q=26.0 size=    2304KiB time=00:00:19.90 bitrate= 948.5kbits/s speed=0.536x elapsed=0:00:37.15    frame= 1214 fps= 32 q=26.0 size=    2304KiB time=00:00:20.20 bitrate= 934.4kbits/s speed=0.536x elapsed=0:00:37.66    frame= 1231 fps= 32 q=26.0 size=    2304KiB time=00:00:20.48 bitrate= 921.5kbits/s speed=0.536x elapsed=0:00:38.18    frame= 1248 fps= 32 q=26.0 size=    2304KiB time=00:00:20.76 bitrate= 908.9kbits/s speed=0.536x elapsed=0:00:38.70    frame= 1266 fps= 32 q=26.0 size=    2560KiB time=00:00:21.06 bitrate= 995.5kbits/s speed=0.537x elapsed=0:00:39.22    frame= 1283 fps= 32 q=26.0 size=    2560KiB time=00:00:21.35 bitrate= 982.3kbits/s speed=0.537x elapsed=0:00:39.73    frame= 1299 fps= 32 q=26.0 size=    2560KiB time=00:00:21.61 bitrate= 970.2kbits/s speed=0.537x elapsed=0:00:40.25    frame= 1315 fps= 32 q=26.0 size=    2560KiB time=00:00:21.88 bitrate= 958.4kbits/s speed=0.537x elapsed=0:00:40.76    frame= 1332 fps= 32 q=26.0 size=    2560KiB time=00:00:22.16 bitrate= 946.1kbits/s speed=0.537x elapsed=0:00:41.28    frame= 1348 fps= 32 q=26.0 size=    2560KiB time=00:00:22.43 bitrate= 934.9kbits/s speed=0.537x elapsed=0:00:41.79    frame= 1365 fps= 32 q=26.0 size=    2560KiB time=00:00:22.71 bitrate= 923.2kbits/s speed=0.537x elapsed=0:00:42.30    frame= 1382 fps= 32 q=26.0 size=    2816KiB time=00:00:23.00 bitrate=1003.0kbits/s speed=0.537x elapsed=0:00:42.83    frame= 1399 fps= 32 q=26.0 size=    2816KiB time=00:00:23.28 bitrate= 990.8kbits/s speed=0.537x elapsed=0:00:43.34    frame= 1414 fps= 32 q=26.0 size=    2816KiB time=00:00:23.53 bitrate= 980.3kbits/s speed=0.537x elapsed=0:00:43.85    frame= 1427 fps= 32 q=26.0 size=    2816KiB time=00:00:23.75 bitrate= 971.3kbits/s speed=0.535x elapsed=0:00:44.36    frame= 1443 fps= 32 q=26.0 size=    2816KiB time=00:00:24.01 bitrate= 960.5kbits/s speed=0.535x elapsed=0:00:44.89    frame= 1459 fps= 32 q=26.0 size=    2816KiB time=00:00:24.28 bitrate= 950.0kbits/s speed=0.535x elapsed=0:00:45.40    frame= 1476 fps= 32 q=26.0 size=    2816KiB time=00:00:24.56 bitrate= 939.0kbits/s speed=0.535x elapsed=0:00:45.91    frame= 1493 fps= 32 q=26.0 size=    2816KiB time=00:00:24.85 bitrate= 928.3kbits/s speed=0.535x elapsed=0:00:46.43    frame= 1510 fps= 32 q=26.0 size=    3072KiB time=00:00:25.13 bitrate=1001.3kbits/s speed=0.535x elapsed=0:00:46.95    frame= 1527 fps= 32 q=26.0 size=    3072KiB time=00:00:25.41 bitrate= 990.1kbits/s speed=0.535x elapsed=0:00:47.46    frame= 1544 fps= 32 q=26.0 size=    3072KiB time=00:00:25.70 bitrate= 979.2kbits/s speed=0.536x elapsed=0:00:47.98    frame= 1561 fps= 32 q=26.0 size=    3072KiB time=00:00:25.98 bitrate= 968.6kbits/s speed=0.536x elapsed=0:00:48.50    frame= 1577 fps= 32 q=26.0 size=    3072KiB time=00:00:26.25 bitrate= 958.7kbits/s speed=0.536x elapsed=0:00:49.01    frame= 1594 fps= 32 q=26.0 size=    3072KiB time=00:00:26.53 bitrate= 948.5kbits/s speed=0.536x elapsed=0:00:49.53    frame= 1610 fps= 32 q=26.0 size=    3072KiB time=00:00:26.80 bitrate= 939.0kbits/s speed=0.536x elapsed=0:00:50.04    frame= 1627 fps= 32 q=26.0 size=    3328KiB time=00:00:27.08 bitrate=1006.6kbits/s speed=0.536x elapsed=0:00:50.55    frame= 1645 fps= 32 q=26.0 size=    3328KiB time=00:00:27.38 bitrate= 995.6kbits/s speed=0.536x elapsed=0:00:51.08    frame= 1661 fps= 32 q=26.0 size=    3328KiB time=00:00:27.65 bitrate= 986.0kbits/s speed=0.536x elapsed=0:00:51.59    frame= 1678 fps= 32 q=26.0 size=    3328KiB time=00:00:27.93 bitrate= 976.0kbits/s speed=0.536x elapsed=0:00:52.11    frame= 1695 fps= 32 q=26.0 size=    3328KiB time=00:00:28.21 bitrate= 966.2kbits/s speed=0.536x elapsed=0:00:52.62    frame= 1712 fps= 32 q=26.0 size=    3328KiB time=00:00:28.50 bitrate= 956.6kbits/s speed=0.536x elapsed=0:00:53.13    frame= 1729 fps= 32 q=26.0 size=    3328KiB time=00:00:28.78 bitrate= 947.2kbits/s speed=0.536x elapsed=0:00:53.66    frame= 1745 fps= 32 q=26.0 size=    3328KiB time=00:00:29.05 bitrate= 938.5kbits/s speed=0.536x elapsed=0:00:54.17    frame= 1762 fps= 32 q=26.0 size=    3584KiB time=00:00:29.33 bitrate=1000.9kbits/s speed=0.536x elapsed=0:00:54.68    frame= 1778 fps= 32 q=26.0 size=    3584KiB time=00:00:29.60 bitrate= 991.9kbits/s speed=0.536x elapsed=0:00:55.19    frame= 1795 fps= 32 q=26.0 size=    3584KiB time=00:00:29.88 bitrate= 982.5kbits/s speed=0.536x elapsed=0:00:55.72    frame= 1810 fps= 32 q=26.0 size=    3584KiB time=00:00:30.13 bitrate= 974.4kbits/s speed=0.536x elapsed=0:00:56.23    frame= 1827 fps= 32 q=26.0 size=    3584KiB time=00:00:30.41 bitrate= 965.3kbits/s speed=0.536x elapsed=0:00:56.74    frame= 1843 fps= 32 q=26.0 size=    3584KiB time=00:00:30.68 bitrate= 956.9kbits/s speed=0.536x elapsed=0:00:57.25    frame= 1859 fps= 32 q=26.0 size=    3584KiB time=00:00:30.95 bitrate= 948.6kbits/s speed=0.536x elapsed=0:00:57.78    frame= 1872 fps= 32 q=26.0 size=    3840KiB time=00:00:31.16 bitrate=1009.3kbits/s speed=0.535x elapsed=0:00:58.29    frame= 1886 fps= 32 q=26.0 size=    3840KiB time=00:00:31.40 bitrate=1001.8kbits/s speed=0.534x elapsed=0:00:58.81    frame= 1900 fps= 32 q=26.0 size=    3840KiB time=00:00:31.63 bitrate= 994.4kbits/s speed=0.533x elapsed=0:00:59.33    frame= 1913 fps= 32 q=26.0 size=    3840KiB time=00:00:31.85 bitrate= 987.7kbits/s speed=0.532x elapsed=0:00:59.84    frame= 1928 fps= 32 q=26.0 size=    3840KiB time=00:00:32.10 bitrate= 980.0kbits/s speed=0.532x elapsed=0:01:00.35    frame= 1942 fps= 32 q=26.0 size=    3840KiB time=00:00:32.33 bitrate= 972.9kbits/s speed=0.531x elapsed=0:01:00.87    frame= 1957 fps= 32 q=26.0 size=    3840KiB time=00:00:32.58 bitrate= 965.5kbits/s speed=0.531x elapsed=0:01:01.38    frame= 1974 fps= 32 q=26.0 size=    3840KiB time=00:00:32.86 bitrate= 957.1kbits/s speed=0.531x elapsed=0:01:01.91    frame= 1989 fps= 32 q=26.0 size=    3840KiB time=00:00:33.11 bitrate= 949.9kbits/s speed=0.531x elapsed=0:01:02.42    frame= 2005 fps= 32 q=26.0 size=    4096KiB time=00:00:33.38 bitrate=1005.1kbits/s speed=0.53x elapsed=0:01:02.93    frame= 2022 fps= 32 q=26.0 size=    4096KiB time=00:00:33.66 bitrate= 996.7kbits/s speed=0.531x elapsed=0:01:03.46    frame= 2036 fps= 32 q=26.0 size=    4096KiB time=00:00:33.90 bitrate= 989.8kbits/s speed=0.53x elapsed=0:01:03.97    frame= 2050 fps= 32 q=26.0 size=    4096KiB time=00:00:34.13 bitrate= 983.1kbits/s speed=0.529x elapsed=0:01:04.48    frame= 2065 fps= 32 q=26.0 size=    4096KiB time=00:00:34.38 bitrate= 975.9kbits/s speed=0.529x elapsed=0:01:04.99    frame= 2082 fps= 32 q=26.0 size=    4096KiB time=00:00:34.66 bitrate= 967.9kbits/s speed=0.529x elapsed=0:01:05.52    frame= 2098 fps= 32 q=26.0 size=    4096KiB time=00:00:34.93 bitrate= 960.5kbits/s speed=0.529x elapsed=0:01:06.03    frame= 2114 fps= 32 q=26.0 size=    4096KiB time=00:00:35.20 bitrate= 953.3kbits/s speed=0.529x elapsed=0:01:06.54    frame= 2129 fps= 32 q=26.0 size=    4352KiB time=00:00:35.45 bitrate=1005.7kbits/s speed=0.529x elapsed=0:01:07.05    frame= 2144 fps= 32 q=26.0 size=    4352KiB time=00:00:35.70 bitrate= 998.7kbits/s speed=0.528x elapsed=0:01:07.57    frame= 2160 fps= 32 q=26.0 size=    4352KiB time=00:00:35.96 bitrate= 991.3kbits/s speed=0.528x elapsed=0:01:08.09    frame= 2176 fps= 32 q=26.0 size=    4352KiB time=00:00:36.23 bitrate= 984.0kbits/s speed=0.528x elapsed=0:01:08.60    frame= 2192 fps= 32 q=26.0 size=    4352KiB time=00:00:36.50 bitrate= 976.8kbits/s speed=0.528x elapsed=0:01:09.13    frame= 2209 fps= 32 q=26.0 size=    4352KiB time=00:00:36.78 bitrate= 969.2kbits/s speed=0.528x elapsed=0:01:09.64    frame= 2227 fps= 32 q=26.0 size=    4352KiB time=00:00:37.08 bitrate= 961.4kbits/s speed=0.529x elapsed=0:01:10.16    frame= 2242 fps= 32 q=26.0 size=    4352KiB time=00:00:37.33 bitrate= 955.0kbits/s speed=0.528x elapsed=0:01:10.67    frame= 2259 fps= 32 q=26.0 size=    4608KiB time=00:00:37.61 bitrate=1003.5kbits/s speed=0.528x elapsed=0:01:11.18    frame= 2277 fps= 32 q=26.0 size=    4608KiB time=00:00:37.91 bitrate= 995.6kbits/s speed=0.529x elapsed=0:01:11.71    frame= 2294 fps= 32 q=26.0 size=    4608KiB time=00:00:38.20 bitrate= 988.2kbits/s speed=0.529x elapsed=0:01:12.22    frame= 2311 fps= 32 q=26.0 size=    4608KiB time=00:00:38.48 bitrate= 980.9kbits/s speed=0.529x elapsed=0:01:12.73    frame= 2327 fps= 32 q=26.0 size=    4608KiB time=00:00:38.75 bitrate= 974.2kbits/s speed=0.529x elapsed=0:01:13.24    frame= 2344 fps= 32 q=26.0 size=    4608KiB time=00:00:39.03 bitrate= 967.1kbits/s speed=0.529x elapsed=0:01:13.76    frame= 2361 fps= 32 q=26.0 size=    4608KiB time=00:00:39.31 bitrate= 960.1kbits/s speed=0.529x elapsed=0:01:14.28    frame= 2376 fps= 32 q=26.0 size=    4864KiB time=00:00:39.56 bitrate=1007.1kbits/s speed=0.529x elapsed=0:01:14.79    frame= 2391 fps= 32 q=26.0 size=    4864KiB time=00:00:39.81 bitrate=1000.7kbits/s speed=0.529x elapsed=0:01:15.30    frame= 2407 fps= 32 q=26.0 size=    4864KiB time=00:00:40.08 bitrate= 994.1kbits/s speed=0.529x elapsed=0:01:15.83    frame= 2424 fps= 32 q=26.0 size=    4864KiB time=00:00:40.36 bitrate= 987.1kbits/s speed=0.529x elapsed=0:01:16.34    frame= 2441 fps= 32 q=26.0 size=    4864KiB time=00:00:40.65 bitrate= 980.2kbits/s speed=0.529x elapsed=0:01:16.85    frame= 2456 fps= 32 q=26.0 size=    4864KiB time=00:00:40.90 bitrate= 974.2kbits/s speed=0.529x elapsed=0:01:17.38    frame= 2470 fps= 32 q=26.0 size=    4864KiB time=00:00:41.13 bitrate= 968.7kbits/s speed=0.528x elapsed=0:01:17.89    frame= 2484 fps= 32 q=24.0 size=    4864KiB time=00:00:41.36 bitrate= 963.2kbits/s speed=0.528x elapsed=0:01:18.40    frame= 2499 fps= 32 q=26.0 size=    4864KiB time=00:00:41.61 bitrate= 957.5kbits/s speed=0.527x elapsed=0:01:18.91    frame= 2515 fps= 32 q=26.0 size=    5120KiB time=00:00:41.88 bitrate=1001.4kbits/s speed=0.527x elapsed=0:01:19.44    frame= 2529 fps= 32 q=26.0 size=    5120KiB time=00:00:42.11 bitrate= 995.9kbits/s speed=0.527x elapsed=0:01:19.94    frame= 2544 fps= 32 q=26.0 size=    5120KiB time=00:00:42.36 bitrate= 990.0kbits/s speed=0.526x elapsed=0:01:20.47    frame= 2558 fps= 32 q=26.0 size=    5120KiB time=00:00:42.60 bitrate= 984.6kbits/s speed=0.526x elapsed=0:01:20.98    frame= 2572 fps= 32 q=26.0 size=    5120KiB time=00:00:42.83 bitrate= 979.2kbits/s speed=0.526x elapsed=0:01:21.49    frame= 2582 fps= 31 q=26.0 size=    5120KiB time=00:00:43.00 bitrate= 975.4kbits/s speed=0.524x elapsed=0:01:22.01    frame= 2595 fps= 31 q=26.0 size=    5120KiB time=00:00:43.21 bitrate= 970.5kbits/s speed=0.524x elapsed=0:01:22.52    frame= 2607 fps= 31 q=26.0 size=    5120KiB time=00:00:43.41 bitrate= 966.1kbits/s speed=0.523x elapsed=0:01:23.05    frame= 2621 fps= 31 q=26.0 size=    5120KiB time=00:00:43.65 bitrate= 960.9kbits/s speed=0.522x elapsed=0:01:23.56    frame= 2633 fps= 31 q=26.0 size=    5376KiB time=00:00:43.85 bitrate=1004.3kbits/s speed=0.522x elapsed=0:01:24.07    frame= 2645 fps= 31 q=26.0 size=    5376KiB time=00:00:44.05 bitrate= 999.8kbits/s speed=0.521x elapsed=0:01:24.58    frame= 2658 fps= 31 q=26.0 size=    5376KiB time=00:00:44.26 bitrate= 994.9kbits/s speed=0.52x elapsed=0:01:25.11    frame= 2669 fps= 31 q=26.0 size=    5376KiB time=00:00:44.45 bitrate= 990.8kbits/s speed=0.519x elapsed=0:01:25.63    frame= 2683 fps= 31 q=26.0 size=    5376KiB time=00:00:44.68 bitrate= 985.6kbits/s speed=0.519x elapsed=0:01:26.14    frame= 2697 fps= 31 q=26.0 size=    5376KiB time=00:00:44.91 bitrate= 980.5kbits/s speed=0.518x elapsed=0:01:26.65    frame= 2712 fps= 31 q=26.0 size=    5376KiB time=00:00:45.16 bitrate= 975.1kbits/s speed=0.518x elapsed=0:01:27.16    frame= 2728 fps= 31 q=26.0 size=    5376KiB time=00:00:45.43 bitrate= 969.3kbits/s speed=0.518x elapsed=0:01:27.69    frame= 2744 fps= 31 q=26.0 size=    5376KiB time=00:00:45.70 bitrate= 963.7kbits/s speed=0.518x elapsed=0:01:28.20    frame= 2761 fps= 31 q=26.0 size=    5632KiB time=00:00:45.98 bitrate=1003.4kbits/s speed=0.518x elapsed=0:01:28.72    frame= 2777 fps= 31 q=26.0 size=    5632KiB time=00:00:46.25 bitrate= 997.6kbits/s speed=0.518x elapsed=0:01:29.23    frame= 2793 fps= 31 q=26.0 size=    5632KiB time=00:00:46.51 bitrate= 991.9kbits/s speed=0.518x elapsed=0:01:29.74    frame= 2810 fps= 31 q=26.0 size=    5632KiB time=00:00:46.80 bitrate= 985.8kbits/s speed=0.518x elapsed=0:01:30.26    frame= 2827 fps= 31 q=26.0 size=    5632KiB time=00:00:47.08 bitrate= 979.9kbits/s speed=0.519x elapsed=0:01:30.77    frame= 2843 fps= 31 q=26.0 size=    5632KiB time=00:00:47.35 bitrate= 974.4kbits/s speed=0.519x elapsed=0:01:31.29    frame= 2860 fps= 31 q=26.0 size=    5632KiB time=00:00:47.63 bitrate= 968.6kbits/s speed=0.519x elapsed=0:01:31.82    frame= 2877 fps= 31 q=26.0 size=    5632KiB time=00:00:47.91 bitrate= 962.9kbits/s speed=0.519x elapsed=0:01:32.34    frame= 2893 fps= 31 q=26.0 size=    5632KiB time=00:00:48.18 bitrate= 957.5kbits/s speed=0.519x elapsed=0:01:32.86    frame= 2910 fps= 31 q=26.0 size=    5632KiB time=00:00:48.46 bitrate= 951.9kbits/s speed=0.519x elapsed=0:01:33.37    frame= 2927 fps= 31 q=26.0 size=    5888KiB time=00:00:48.75 bitrate= 989.4kbits/s speed=0.519x elapsed=0:01:33.89    frame= 2943 fps= 31 q=26.0 size=    5888KiB time=00:00:49.01 bitrate= 984.1kbits/s speed=0.519x elapsed=0:01:34.40    frame= 2959 fps= 31 q=26.0 size=    5888KiB time=00:00:49.28 bitrate= 978.7kbits/s speed=0.519x elapsed=0:01:34.92    frame= 2975 fps= 31 q=26.0 size=    5888KiB time=00:00:49.55 bitrate= 973.5kbits/s speed=0.519x elapsed=0:01:35.43    frame= 2992 fps= 31 q=26.0 size=    5888KiB time=00:00:49.83 bitrate= 967.9kbits/s speed=0.519x elapsed=0:01:35.95    frame= 3009 fps= 31 q=26.0 size=    5888KiB time=00:00:50.11 bitrate= 962.5kbits/s speed=0.519x elapsed=0:01:36.47    frame= 3025 fps= 31 q=26.0 size=    5888KiB time=00:00:50.38 bitrate= 957.4kbits/s speed=0.519x elapsed=0:01:36.98    frame= 3041 fps= 31 q=26.0 size=    5888KiB time=00:00:50.65 bitrate= 952.3kbits/s speed=0.52x elapsed=0:01:37.49    frame= 3057 fps= 31 q=26.0 size=    5888KiB time=00:00:50.91 bitrate= 947.3kbits/s speed=0.519x elapsed=0:01:38.02    frame= 3071 fps= 31 q=26.0 size=    5888KiB time=00:00:51.15 bitrate= 943.0kbits/s speed=0.519x elapsed=0:01:38.53    frame= 3083 fps= 31 q=26.0 size=    6144KiB time=00:00:51.35 bitrate= 980.2kbits/s speed=0.518x elapsed=0:01:39.04    frame= 3097 fps= 31 q=26.0 size=    6144KiB time=00:00:51.58 bitrate= 975.7kbits/s speed=0.518x elapsed=0:01:39.56    frame= 3110 fps= 31 q=26.0 size=    6144KiB time=00:00:51.80 bitrate= 971.7kbits/s speed=0.518x elapsed=0:01:40.08    frame= 3125 fps= 31 q=26.0 size=    6144KiB time=00:00:52.05 bitrate= 967.0kbits/s speed=0.517x elapsed=0:01:40.59    frame= 3140 fps= 31 q=26.0 size=    6144KiB time=00:00:52.30 bitrate= 962.4kbits/s speed=0.517x elapsed=0:01:41.11    frame= 3153 fps= 31 q=26.0 size=    6144KiB time=00:00:52.51 bitrate= 958.4kbits/s speed=0.517x elapsed=0:01:41.61    frame= 3168 fps= 31 q=26.0 size=    6144KiB time=00:00:52.76 bitrate= 953.9kbits/s speed=0.517x elapsed=0:01:42.13    frame= 3183 fps= 31 q=26.0 size=    6144KiB time=00:00:53.01 bitrate= 949.4kbits/s speed=0.516x elapsed=0:01:42.66    frame= 3198 fps= 31 q=26.0 size=    6144KiB time=00:00:53.26 bitrate= 944.9kbits/s speed=0.516x elapsed=0:01:43.17    frame= 3214 fps= 31 q=26.0 size=    6144KiB time=00:00:53.53 bitrate= 940.2kbits/s speed=0.516x elapsed=0:01:43.68    frame= 3230 fps= 31 q=26.0 size=    6144KiB time=00:00:53.80 bitrate= 935.5kbits/s speed=0.516x elapsed=0:01:44.20    frame= 3246 fps= 31 q=26.0 size=    6144KiB time=00:00:54.06 bitrate= 930.9kbits/s speed=0.516x elapsed=0:01:44.72    frame= 3262 fps= 31 q=26.0 size=    6400KiB time=00:00:54.33 bitrate= 965.0kbits/s speed=0.516x elapsed=0:01:45.23    frame= 3278 fps= 31 q=26.0 size=    6400KiB time=00:00:54.60 bitrate= 960.2kbits/s speed=0.516x elapsed=0:01:45.74    frame= 3295 fps= 31 q=26.0 size=    6400KiB time=00:00:54.88 bitrate= 955.3kbits/s speed=0.516x elapsed=0:01:46.27    frame= 3311 fps= 31 q=26.0 size=    6400KiB time=00:00:55.15 bitrate= 950.7kbits/s speed=0.516x elapsed=0:01:46.78    frame= 3327 fps= 31 q=26.0 size=    6400KiB time=00:00:55.41 bitrate= 946.1kbits/s speed=0.517x elapsed=0:01:47.29    frame= 3343 fps= 31 q=26.0 size=    6400KiB time=00:00:55.68 bitrate= 941.6kbits/s speed=0.516x elapsed=0:01:47.81    frame= 3359 fps= 31 q=26.0 size=    6400KiB time=00:00:55.95 bitrate= 937.1kbits/s speed=0.516x elapsed=0:01:48.32    frame= 3373 fps= 31 q=26.0 size=    6400KiB time=00:00:56.18 bitrate= 933.2kbits/s speed=0.516x elapsed=0:01:48.84    frame= 3389 fps= 31 q=26.0 size=    6400KiB time=00:00:56.45 bitrate= 928.8kbits/s speed=0.516x elapsed=0:01:49.35    frame= 3405 fps= 31 q=26.0 size=    6400KiB time=00:00:56.71 bitrate= 924.4kbits/s speed=0.516x elapsed=0:01:49.88    frame= 3421 fps= 31 q=26.0 size=    6400KiB time=00:00:56.98 bitrate= 920.1kbits/s speed=0.516x elapsed=0:01:50.39    frame= 3437 fps= 31 q=26.0 size=    6400KiB time=00:00:57.25 bitrate= 915.8kbits/s speed=0.516x elapsed=0:01:50.90    frame= 3453 fps= 31 q=26.0 size=    6400KiB time=00:00:57.51 bitrate= 911.5kbits/s speed=0.516x elapsed=0:01:51.42    frame= 3469 fps= 31 q=26.0 size=    6400KiB time=00:00:57.78 bitrate= 907.3kbits/s speed=0.516x elapsed=0:01:51.93    frame= 3486 fps= 31 q=26.0 size=    6400KiB time=00:00:58.06 bitrate= 902.9kbits/s speed=0.516x elapsed=0:01:52.44    frame= 3503 fps= 31 q=26.0 size=    6656KiB time=00:00:58.35 bitrate= 934.5kbits/s speed=0.516x elapsed=0:01:52.97    frame= 3521 fps= 31 q=26.0 size=    6656KiB time=00:00:58.65 bitrate= 929.7kbits/s speed=0.517x elapsed=0:01:53.48    frame= 3538 fps= 31 q=26.0 size=    6656KiB time=00:00:58.93 bitrate= 925.2kbits/s speed=0.517x elapsed=0:01:53.99    frame= 3556 fps= 31 q=26.0 size=    6656KiB time=00:00:59.23 bitrate= 920.5kbits/s speed=0.517x elapsed=0:01:54.52    frame= 3573 fps= 31 q=26.0 size=    6656KiB time=00:00:59.51 bitrate= 916.2kbits/s speed=0.517x elapsed=0:01:55.03    frame= 3590 fps= 31 q=26.0 size=    6656KiB time=00:00:59.80 bitrate= 911.8kbits/s speed=0.518x elapsed=0:01:55.54    frame= 3607 fps= 31 q=26.0 size=    6656KiB time=00:01:00.08 bitrate= 907.5kbits/s speed=0.518x elapsed=0:01:56.05    frame= 3624 fps= 31 q=26.0 size=    6656KiB time=00:01:00.36 bitrate= 903.3kbits/s speed=0.518x elapsed=0:01:56.58    frame= 3641 fps= 31 q=26.0 size=    6656KiB time=00:01:00.65 bitrate= 899.0kbits/s speed=0.518x elapsed=0:01:57.09    frame= 3658 fps= 31 q=26.0 size=    6656KiB time=00:01:00.93 bitrate= 894.9kbits/s speed=0.518x elapsed=0:01:57.61    frame= 3674 fps= 31 q=26.0 size=    6656KiB time=00:01:01.20 bitrate= 891.0kbits/s speed=0.518x elapsed=0:01:58.12    frame= 3690 fps= 31 q=26.0 size=    6656KiB time=00:01:01.46 bitrate= 887.1kbits/s speed=0.518x elapsed=0:01:58.63    frame= 3708 fps= 31 q=26.0 size=    6656KiB time=00:01:01.76 bitrate= 882.8kbits/s speed=0.518x elapsed=0:01:59.16    frame= 3724 fps= 31 q=26.0 size=    6656KiB time=00:01:02.03 bitrate= 879.0kbits/s speed=0.518x elapsed=0:01:59.67    frame= 3741 fps= 31 q=26.0 size=    6656KiB time=00:01:02.31 bitrate= 875.0kbits/s speed=0.518x elapsed=0:02:00.18    frame= 3757 fps= 31 q=26.0 size=    6912KiB time=00:01:02.58 bitrate= 904.8kbits/s speed=0.519x elapsed=0:02:00.70    frame= 3775 fps= 31 q=26.0 size=    6912KiB time=00:01:02.88 bitrate= 900.5kbits/s speed=0.519x elapsed=0:02:01.22    frame= 3791 fps= 31 q=26.0 size=    6912KiB time=00:01:03.15 bitrate= 896.7kbits/s speed=0.519x elapsed=0:02:01.73    frame= 3806 fps= 31 q=26.0 size=    6912KiB time=00:01:03.40 bitrate= 893.1kbits/s speed=0.519x elapsed=0:02:02.24    frame= 3820 fps= 31 q=26.0 size=    6912KiB time=00:01:03.63 bitrate= 889.8kbits/s speed=0.518x elapsed=0:02:02.75    frame= 3835 fps= 31 q=26.0 size=    6912KiB time=00:01:03.88 bitrate= 886.4kbits/s speed=0.518x elapsed=0:02:03.28    frame= 3850 fps= 31 q=26.0 size=    6912KiB time=00:01:04.13 bitrate= 882.9kbits/s speed=0.518x elapsed=0:02:03.79    frame= 3866 fps= 31 q=26.0 size=    6912KiB time=00:01:04.40 bitrate= 879.2kbits/s speed=0.518x elapsed=0:02:04.31    frame= 3881 fps= 31 q=26.0 size=    6912KiB time=00:01:04.65 bitrate= 875.8kbits/s speed=0.518x elapsed=0:02:04.83    frame= 3896 fps= 31 q=26.0 size=    6912KiB time=00:01:04.90 bitrate= 872.5kbits/s speed=0.518x elapsed=0:02:05.34    frame= 3912 fps= 31 q=26.0 size=    6912KiB time=00:01:05.16 bitrate= 868.9kbits/s speed=0.518x elapsed=0:02:05.85    frame= 3930 fps= 31 q=26.0 size=    6912KiB time=00:01:05.46 bitrate= 864.9kbits/s speed=0.518x elapsed=0:02:06.38    frame= 3949 fps= 31 q=26.0 size=    6912KiB time=00:01:05.78 bitrate= 860.8kbits/s speed=0.518x elapsed=0:02:06.89    frame= 3968 fps= 31 q=26.0 size=    6912KiB time=00:01:06.10 bitrate= 856.6kbits/s speed=0.519x elapsed=0:02:07.41    frame= 3987 fps= 31 q=26.0 size=    7168KiB time=00:01:06.41 bitrate= 884.1kbits/s speed=0.519x elapsed=0:02:07.92    frame= 4004 fps= 31 q=26.0 size=    7168KiB time=00:01:06.70 bitrate= 880.4kbits/s speed=0.519x elapsed=0:02:08.44    frame= 4023 fps= 31 q=26.0 size=    7168KiB time=00:01:07.01 bitrate= 876.2kbits/s speed=0.52x elapsed=0:02:08.95    frame= 4041 fps= 31 q=26.0 size=    7168KiB time=00:01:07.31 bitrate= 872.3kbits/s speed=0.52x elapsed=0:02:09.46    frame= 4059 fps= 31 q=26.0 size=    7168KiB time=00:01:07.61 bitrate= 868.4kbits/s speed=0.52x elapsed=0:02:09.98    frame= 4076 fps= 31 q=26.0 size=    7168KiB time=00:01:07.90 bitrate= 864.8kbits/s speed=0.52x elapsed=0:02:10.49    frame= 4094 fps= 31 q=26.0 size=    7168KiB time=00:01:08.20 bitrate= 861.0kbits/s speed=0.521x elapsed=0:02:11.02    frame= 4111 fps= 31 q=26.0 size=    7168KiB time=00:01:08.48 bitrate= 857.4kbits/s speed=0.521x elapsed=0:02:11.53    frame= 4128 fps= 31 q=26.0 size=    7168KiB time=00:01:08.76 bitrate= 853.9kbits/s speed=0.521x elapsed=0:02:12.04    frame= 4146 fps= 31 q=26.0 size=    7168KiB time=00:01:09.06 bitrate= 850.2kbits/s speed=0.521x elapsed=0:02:12.55    frame= 4164 fps= 31 q=26.0 size=    7424KiB time=00:01:09.36 bitrate= 876.8kbits/s speed=0.521x elapsed=0:02:13.07    frame= 4182 fps= 31 q=26.0 size=    7424KiB time=00:01:09.66 bitrate= 873.0kbits/s speed=0.521x elapsed=0:02:13.60    frame= 4199 fps= 31 q=26.0 size=    7424KiB time=00:01:09.95 bitrate= 869.4kbits/s speed=0.522x elapsed=0:02:14.11    frame= 4217 fps= 31 q=26.0 size=    7424KiB time=00:01:10.25 bitrate= 865.7kbits/s speed=0.522x elapsed=0:02:14.62    frame= 4234 fps= 31 q=24.0 size=    7424KiB time=00:01:10.53 bitrate= 862.3kbits/s speed=0.522x elapsed=0:02:15.14    frame= 4251 fps= 31 q=26.0 size=    7424KiB time=00:01:10.81 bitrate= 858.8kbits/s speed=0.522x elapsed=0:02:15.65    frame= 4268 fps= 31 q=26.0 size=    7424KiB time=00:01:11.10 bitrate= 855.4kbits/s speed=0.522x elapsed=0:02:16.16    frame= 4285 fps= 31 q=26.0 size=    7424KiB time=00:01:11.38 bitrate= 852.0kbits/s speed=0.522x elapsed=0:02:16.68    frame= 4302 fps= 31 q=26.0 size=    7424KiB time=00:01:11.66 bitrate= 848.6kbits/s speed=0.522x elapsed=0:02:17.19    frame= 4319 fps= 31 q=26.0 size=    7424KiB time=00:01:11.95 bitrate= 845.3kbits/s speed=0.522x elapsed=0:02:17.72    frame= 4336 fps= 31 q=26.0 size=    7424KiB time=00:01:12.23 bitrate= 842.0kbits/s speed=0.523x elapsed=0:02:18.23    frame= 4353 fps= 31 q=26.0 size=    7424KiB time=00:01:12.51 bitrate= 838.7kbits/s speed=0.523x elapsed=0:02:18.75    frame= 4370 fps= 31 q=26.0 size=    7424KiB time=00:01:12.80 bitrate= 835.4kbits/s speed=0.523x elapsed=0:02:19.26    frame= 4386 fps= 31 q=26.0 size=    7680KiB time=00:01:13.06 bitrate= 861.1kbits/s speed=0.523x elapsed=0:02:19.77    frame= 4403 fps= 31 q=26.0 size=    7680KiB time=00:01:13.35 bitrate= 857.7kbits/s speed=0.523x elapsed=0:02:20.30    frame= 4419 fps= 31 q=26.0 size=    7680KiB time=00:01:13.61 bitrate= 854.6kbits/s speed=0.523x elapsed=0:02:20.81    frame= 4436 fps= 31 q=26.0 size=    7680KiB time=00:01:13.90 bitrate= 851.4kbits/s speed=0.523x elapsed=0:02:21.32    frame= 4453 fps= 31 q=26.0 size=    7680KiB time=00:01:14.18 bitrate= 848.1kbits/s speed=0.523x elapsed=0:02:21.84    frame= 4469 fps= 31 q=26.0 size=    7680KiB time=00:01:14.45 bitrate= 845.1kbits/s speed=0.523x elapsed=0:02:22.35    frame= 4486 fps= 31 q=26.0 size=    7680KiB time=00:01:14.73 bitrate= 841.9kbits/s speed=0.523x elapsed=0:02:22.88    frame= 4503 fps= 31 q=26.0 size=    7680KiB time=00:01:15.01 bitrate= 838.7kbits/s speed=0.523x elapsed=0:02:23.39    frame= 4520 fps= 31 q=26.0 size=    7680KiB time=00:01:15.30 bitrate= 835.5kbits/s speed=0.523x elapsed=0:02:23.90    frame= 4536 fps= 31 q=26.0 size=    7680KiB time=00:01:15.56 bitrate= 832.6kbits/s speed=0.523x elapsed=0:02:24.41    frame= 4554 fps= 31 q=26.0 size=    7680KiB time=00:01:15.86 bitrate= 829.3kbits/s speed=0.523x elapsed=0:02:24.94    frame= 4570 fps= 31 q=26.0 size=    7680KiB time=00:01:16.13 bitrate= 826.4kbits/s speed=0.523x elapsed=0:02:25.45    frame= 4586 fps= 31 q=26.0 size=    7680KiB time=00:01:16.40 bitrate= 823.5kbits/s speed=0.523x elapsed=0:02:25.97    frame= 4603 fps= 31 q=26.0 size=    7680KiB time=00:01:16.68 bitrate= 820.5kbits/s speed=0.523x elapsed=0:02:26.48    frame= 4619 fps= 31 q=26.0 size=    7680KiB time=00:01:16.95 bitrate= 817.6kbits/s speed=0.523x elapsed=0:02:26.99    frame= 4637 fps= 31 q=26.0 size=    7680KiB time=00:01:17.25 bitrate= 814.4kbits/s speed=0.524x elapsed=0:02:27.52    frame= 4653 fps= 31 q=26.0 size=    7680KiB time=00:01:17.51 bitrate= 811.6kbits/s speed=0.524x elapsed=0:02:28.03    frame= 4670 fps= 31 q=26.0 size=    7680KiB time=00:01:17.80 bitrate= 808.7kbits/s speed=0.524x elapsed=0:02:28.54    frame= 4686 fps= 31 q=26.0 size=    7680KiB time=00:01:18.06 bitrate= 805.9kbits/s speed=0.524x elapsed=0:02:29.05    frame= 4703 fps= 31 q=26.0 size=    7680KiB time=00:01:18.35 bitrate= 803.0kbits/s speed=0.524x elapsed=0:02:29.57    frame= 4720 fps= 31 q=26.0 size=    7680KiB time=00:01:18.63 bitrate= 800.1kbits/s speed=0.524x elapsed=0:02:30.09    frame= 4736 fps= 31 q=26.0 size=    7680KiB time=00:01:18.90 bitrate= 797.4kbits/s speed=0.524x elapsed=0:02:30.61    frame= 4753 fps= 31 q=26.0 size=    7936KiB time=00:01:19.18 bitrate= 821.0kbits/s speed=0.524x elapsed=0:02:31.12    frame= 4770 fps= 31 q=26.0 size=    7936KiB time=00:01:19.46 bitrate= 818.1kbits/s speed=0.524x elapsed=0:02:31.63    frame= 4787 fps= 31 q=26.0 size=    7936KiB time=00:01:19.75 bitrate= 815.2kbits/s speed=0.524x elapsed=0:02:32.15    frame= 4804 fps= 31 q=26.0 size=    7936KiB time=00:01:20.03 bitrate= 812.3kbits/s speed=0.524x elapsed=0:02:32.67    frame= 4820 fps= 31 q=26.0 size=    7936KiB time=00:01:20.30 bitrate= 809.6kbits/s speed=0.524x elapsed=0:02:33.18    frame= 4837 fps= 31 q=26.0 size=    7936KiB time=00:01:20.58 bitrate= 806.8kbits/s speed=0.524x elapsed=0:02:33.70    frame= 4854 fps= 31 q=26.0 size=    7936KiB time=00:01:20.86 bitrate= 803.9kbits/s speed=0.524x elapsed=0:02:34.21    frame= 4871 fps= 31 q=26.0 size=    7936KiB time=00:01:21.15 bitrate= 801.1kbits/s speed=0.524x elapsed=0:02:34.72    frame= 4888 fps= 31 q=26.0 size=    7936KiB time=00:01:21.43 bitrate= 798.3kbits/s speed=0.525x elapsed=0:02:35.25    frame= 4905 fps= 31 q=26.0 size=    7936KiB time=00:01:21.71 bitrate= 795.6kbits/s speed=0.525x elapsed=0:02:35.76    frame= 4922 fps= 31 q=26.0 size=    7936KiB time=00:01:22.00 bitrate= 792.8kbits/s speed=0.525x elapsed=0:02:36.28    frame= 4952 fps= 32 q=26.0 size=    7936KiB time=00:01:22.50 bitrate= 788.0kbits/s speed=0.526x elapsed=0:02:36.79    frame= 4987 fps= 32 q=26.0 size=    7936KiB time=00:01:23.08 bitrate= 782.5kbits/s speed=0.528x elapsed=0:02:37.30    frame= 5023 fps= 32 q=26.0 size=    7936KiB time=00:01:23.68 bitrate= 776.9kbits/s speed=0.53x elapsed=0:02:37.83    frame= 5059 fps= 32 q=26.0 size=    7936KiB time=00:01:24.28 bitrate= 771.4kbits/s speed=0.532x elapsed=0:02:38.34    frame= 5093 fps= 32 q=26.0 size=    7936KiB time=00:01:24.85 bitrate= 766.2kbits/s speed=0.534x elapsed=0:02:38.86    frame= 5129 fps= 32 q=26.0 size=    7936KiB time=00:01:25.45 bitrate= 760.8kbits/s speed=0.536x elapsed=0:02:39.37    frame= 5164 fps= 32 q=26.0 size=    7936KiB time=00:01:26.03 bitrate= 755.7kbits/s speed=0.538x elapsed=0:02:39.88    frame= 5200 fps= 32 q=26.0 size=    7936KiB time=00:01:26.63 bitrate= 750.4kbits/s speed=0.54x elapsed=0:02:40.41    frame= 5231 fps= 33 q=26.0 size=    7936KiB time=00:01:27.15 bitrate= 746.0kbits/s speed=0.542x elapsed=0:02:40.92    frame= 5245 fps= 32 q=26.0 size=    8192KiB time=00:01:27.38 bitrate= 768.0kbits/s speed=0.541x elapsed=0:02:41.44    frame= 5259 fps= 32 q=26.0 size=    8192KiB time=00:01:27.61 bitrate= 765.9kbits/s speed=0.541x elapsed=0:02:41.95    frame= 5273 fps= 32 q=26.0 size=    8192KiB time=00:01:27.85 bitrate= 763.9kbits/s speed=0.541x elapsed=0:02:42.46    frame= 5287 fps= 32 q=26.0 size=    8192KiB time=00:01:28.08 bitrate= 761.9kbits/s speed=0.54x elapsed=0:02:42.98    frame= 5301 fps= 32 q=26.0 size=    8192KiB time=00:01:28.31 bitrate= 759.9kbits/s speed=0.54x elapsed=0:02:43.49    frame= 5315 fps= 32 q=26.0 size=    8192KiB time=00:01:28.55 bitrate= 757.9kbits/s speed=0.54x elapsed=0:02:44.00    frame= 5329 fps= 32 q=26.0 size=    8192KiB time=00:01:28.78 bitrate= 755.9kbits/s speed=0.54x elapsed=0:02:44.52    frame= 5344 fps= 32 q=26.0 size=    8448KiB time=00:01:29.03 bitrate= 777.3kbits/s speed=0.539x elapsed=0:02:45.05    [mp4 @ 0000016467415740] Starting second pass: moving the moov atom to the beginning of the file
[out#0/mp4 @ 0000016467415640] video:8685KiB audio:0KiB subtitle:0KiB other streams:0KiB global headers:0KiB muxing overhead: 0.726131%
frame= 5400 fps= 33 q=-1.0 Lsize=    8748KiB time=00:01:29.96 bitrate= 796.5kbits/s speed=0.544x elapsed=0:02:45.44    
[libx264 @ 000001646742e300] frame I:22    Avg QP: 6.50  size:105957
[libx264 @ 000001646742e300] frame P:1437  Avg QP:16.58  size:  3581
[libx264 @ 000001646742e300] frame B:3941  Avg QP:20.47  size:   359
[libx264 @ 000001646742e300] consecutive B-frames:  1.1%  2.0%  8.3% 88.6%
[libx264 @ 000001646742e300] mb I  I16..4: 47.9% 36.4% 15.7%
[libx264 @ 000001646742e300] mb P  I16..4:  0.4%  0.5%  0.1%  P16..4:  3.3%  0.3%  0.5%  0.0%  0.0%    skip:94.8%
[libx264 @ 000001646742e300] mb B  I16..4:  0.2%  0.0%  0.0%  B16..8:  0.2%  0.1%  0.0%  direct: 1.9%  skip:97.7%  L0:48.9% L1:45.7% BI: 5.4%
[libx264 @ 000001646742e300] 8x8 transform intra:36.3% inter:42.4%
[libx264 @ 000001646742e300] coded y,uvDC,uvAC intra: 15.9% 15.9% 10.9% inter: 0.6% 2.1% 0.3%
[libx264 @ 000001646742e300] i16 v,h,dc,p: 90%  6%  3%  1%
[libx264 @ 000001646742e300] i8 v,h,dc,ddl,ddr,vr,hd,vl,hu: 51%  9% 28%  2%  2%  2%  2%  2%  2%
[libx264 @ 000001646742e300] i4 v,h,dc,ddl,ddr,vr,hd,vl,hu: 39% 20% 12%  6%  6%  4%  4%  5%  4%
[libx264 @ 000001646742e300] i8c dc,h,v,p: 88%  6%  6%  1%
[libx264 @ 000001646742e300] Weighted P-Frames: Y:5.0% UV:4.5%
[libx264 @ 000001646742e300] ref P L0: 90.9%  9.1%
[libx264 @ 000001646742e300] ref B L0: 83.4% 16.6%
[libx264 @ 000001646742e300] ref B L1: 94.0%  6.0%
[libx264 @ 000001646742e300] kb/s:790.44
